<svg id="Layer_1" data-name="Layer 1" xmlns="http://www.w3.org/2000/svg" viewBox="0 0 1920 1440" width="1920" height="1440"><defs><style>.cls-1{fill:#222;}.cls-2{fill:#fff;}.cls-3{fill:none;stroke:#fff;stroke-miterlimit:10;stroke-width:3px;}</style></defs><title>browser-dark3</title><rect class="cls-1" width="1920" height="1440"/><path class="cls-2" d="M195.82,48.78V69h-3.69V48.78Z"/><path class="cls-2" d="M200.08,58.74c0-1.68,0-3.09-.12-4.35h3.24l.18,2.19h.09a5.27,5.27,0,0,1,4.65-2.52c2.55,0,5.19,1.65,5.19,6.27V69h-3.69V60.75c0-2.1-.78-3.69-2.79-3.69A3.1,3.1,0,0,0,204,59.22a3.76,3.76,0,0,0-.15,1.2V69h-3.72Z"/><path class="cls-2" d="M219.1,54.39l2.37,7.41c.42,1.29.72,2.46,1,3.66h.09c.27-1.2.6-2.34,1-3.66l2.31-7.41h3.9L224.17,69h-3.63l-5.43-14.61Z"/><path class="cls-2" d="M234.22,62.73c.09,2.64,2.16,3.78,4.5,3.78a11,11,0,0,0,4.05-.66l.54,2.55a13.76,13.76,0,0,1-5.1.9c-4.74,0-7.53-2.91-7.53-7.38,0-4.05,2.46-7.86,7.14-7.86s6.3,3.9,6.3,7.11a9.08,9.08,0,0,1-.12,1.56Zm6.42-2.58c0-1.35-.57-3.57-3-3.57-2.28,0-3.24,2.07-3.39,3.57Z"/><path class="cls-2" d="M247.09,58.74c0-1.68,0-3.09-.12-4.35h3.24l.18,2.19h.09a5.27,5.27,0,0,1,4.65-2.52c2.55,0,5.19,1.65,5.19,6.27V69h-3.69V60.75c0-2.1-.78-3.69-2.79-3.69A3.1,3.1,0,0,0,251,59.22a3.76,3.76,0,0,0-.15,1.2V69h-3.72Z"/><path class="cls-2" d="M268.33,50.22v4.17h3.51v2.76h-3.51V63.6c0,1.77.48,2.7,1.89,2.7a5.45,5.45,0,0,0,1.44-.18l.06,2.82a8.11,8.11,0,0,1-2.67.36,4.27,4.27,0,0,1-3.18-1.2c-.78-.84-1.14-2.16-1.14-4.08V57.15h-2.1V54.39h2.1v-3.3Z"/><path class="cls-2" d="M288.34,61.56c0,5.37-3.78,7.77-7.5,7.77-4.14,0-7.32-2.85-7.32-7.53s3.15-7.74,7.56-7.74S288.34,57.12,288.34,61.56Zm-11,.15c0,2.82,1.38,4.95,3.63,4.95s3.57-2.07,3.57-5c0-2.28-1-4.89-3.54-4.89S277.33,59.28,277.33,61.71Z"/><path class="cls-2" d="M291.37,59.1c0-2,0-3.39-.12-4.71h3.21l.12,2.79h.12a4.36,4.36,0,0,1,4-3.12,3.88,3.88,0,0,1,.87.09v3.48a5.13,5.13,0,0,0-1.08-.12,3.25,3.25,0,0,0-3.3,2.79,6.33,6.33,0,0,0-.12,1.14V69h-3.69Z"/><path class="cls-2" d="M305,54.39l2.64,7.83c.3.9.6,2,.81,2.85h.09c.24-.84.51-1.92.78-2.88l2.28-7.8h4l-3.66,10c-2,5.46-3.36,7.89-5.1,9.39A7.42,7.42,0,0,1,303,75.63l-.84-3.12a6.32,6.32,0,0,0,2.16-1,6.44,6.44,0,0,0,2-2.31,1.48,1.48,0,0,0,.24-.66,1.56,1.56,0,0,0-.21-.72L301,54.39Z"/><line class="cls-3" y1="99" x2="1920" y2="99"/><line class="cls-3" x1="2220.5" y1="605.5" x2="2220.5" y2="606.5"/><path class="cls-2" d="M463,65a10.22,10.22,0,0,0,4.89,1.29c2.37,0,3.69-1.11,3.69-2.76s-1-2.43-3.6-3.36c-3.33-1.2-5.46-3-5.46-5.88,0-3.3,2.76-5.82,7.14-5.82a10.68,10.68,0,0,1,4.86,1l-.9,3a8.56,8.56,0,0,0-4-1c-2.34,0-3.36,1.26-3.36,2.43,0,1.56,1.17,2.28,3.87,3.33,3.51,1.32,5.22,3.09,5.22,6,0,3.24-2.46,6.06-7.68,6.06A12,12,0,0,1,462.23,68Z"/><path class="cls-2" d="M481.34,62.73c.09,2.64,2.16,3.78,4.5,3.78a11,11,0,0,0,4.05-.66l.54,2.55a13.76,13.76,0,0,1-5.1.9c-4.74,0-7.53-2.91-7.53-7.38,0-4.05,2.46-7.86,7.14-7.86s6.3,3.9,6.3,7.11a9.08,9.08,0,0,1-.12,1.56Zm6.42-2.58c0-1.35-.57-3.57-3-3.57-2.28,0-3.24,2.07-3.39,3.57Z"/><path class="cls-2" d="M494.21,59.1c0-2,0-3.39-.12-4.71h3.21l.12,2.79h.12a4.36,4.36,0,0,1,4-3.12,3.88,3.88,0,0,1,.87.09v3.48a5.13,5.13,0,0,0-1.08-.12A3.25,3.25,0,0,0,498,60.3a6.33,6.33,0,0,0-.12,1.14V69h-3.69Z"/><path class="cls-2" d="M507.89,54.39l2.37,7.41c.42,1.29.72,2.46,1,3.66h.09c.27-1.2.6-2.34,1-3.66l2.31-7.41h3.9L513,69h-3.63L503.9,54.39Z"/><path class="cls-2" d="M523,62.73c.09,2.64,2.16,3.78,4.5,3.78a11,11,0,0,0,4-.66l.54,2.55a13.76,13.76,0,0,1-5.1.9c-4.74,0-7.53-2.91-7.53-7.38,0-4.05,2.46-7.86,7.14-7.86s6.3,3.9,6.3,7.11a9.08,9.08,0,0,1-.12,1.56Zm6.42-2.58c0-1.35-.57-3.57-3-3.57-2.28,0-3.24,2.07-3.39,3.57Z"/><path class="cls-2" d="M535.88,59.1c0-2,0-3.39-.12-4.71H539l.12,2.79h.12a4.36,4.36,0,0,1,4-3.12,3.88,3.88,0,0,1,.87.09v3.48a5.13,5.13,0,0,0-1.08-.12,3.25,3.25,0,0,0-3.3,2.79,6.33,6.33,0,0,0-.12,1.14V69h-3.69Z"/><rect class="cls-2" x="656" y="94" width="200" height="10"/><path class="cls-2" d="M732.62,68.4a12.78,12.78,0,0,1-5.22.9c-6.42,0-10.32-4-10.32-10.17,0-6.66,4.62-10.68,10.8-10.68a11.62,11.62,0,0,1,4.92.9L732,52.29a9.82,9.82,0,0,0-4-.78c-4.11,0-7.08,2.58-7.08,7.44,0,4.44,2.61,7.29,7,7.29a10.33,10.33,0,0,0,4-.75Z"/><path class="cls-2" d="M749,61.56c0,5.37-3.78,7.77-7.5,7.77-4.14,0-7.32-2.85-7.32-7.53s3.15-7.74,7.56-7.74S749,57.12,749,61.56Zm-11,.15c0,2.82,1.38,4.95,3.63,4.95s3.57-2.07,3.57-5c0-2.28-1-4.89-3.54-4.89S738,59.28,738,61.71Z"/><path class="cls-2" d="M752.06,58.74c0-1.68,0-3.09-.12-4.35h3.24l.18,2.19h.09a5.27,5.27,0,0,1,4.65-2.52c2.55,0,5.19,1.65,5.19,6.27V69H761.6V60.75c0-2.1-.78-3.69-2.79-3.69a3.1,3.1,0,0,0-2.88,2.16,3.76,3.76,0,0,0-.15,1.2V69h-3.72Z"/><path class="cls-2" d="M769.64,69V57.15h-2V54.39h2V53.7c0-3.93,2.73-6.33,7.08-6.33a8.65,8.65,0,0,1,4,.93l-.81,2.79a6.7,6.7,0,0,0-3.21-.78c-2.58,0-3.42,1.56-3.42,3.48v.6H782V69h-3.72V57.15h-5V69Z"/><path class="cls-2" d="M799.34,54.39c-.06,1-.12,2.19-.12,4.2v8.28c0,3.06-.63,5.25-2.16,6.63a8.4,8.4,0,0,1-5.64,1.77,10.34,10.34,0,0,1-5.1-1.17l.81-2.79a8.82,8.82,0,0,0,4.26,1.11c2.4,0,4.2-1.26,4.2-4.41V66.75h-.06a4.93,4.93,0,0,1-4.26,2.16c-3.63,0-6.21-3-6.21-7.14,0-4.8,3.12-7.71,6.63-7.71a4.6,4.6,0,0,1,4.23,2.28H796l.15-2Zm-3.81,5.85a3.58,3.58,0,0,0-.12-1,3.06,3.06,0,0,0-3-2.37c-2.07,0-3.6,1.8-3.6,4.77,0,2.49,1.26,4.5,3.57,4.5a3.15,3.15,0,0,0,3-2.22,6.36,6.36,0,0,0,.15-1.32Z"/><rect class="cls-2" y="130" width="1920" height="1310"/></svg>
