# Blender v2.77 (sub 0) OBJ File: 'vr_controller_lowpoly.blend'
# www.blender.org
mtllib status.mtl
o status_status_mesh
v -0.013284 -0.007170 0.159532
v 0.013284 -0.007170 0.159532
v -0.014330 -0.003637 0.130160
v 0.014330 -0.003637 0.130160
v -0.009409 -0.005389 0.159556
v 0.000000 -0.004643 0.159556
v 0.009409 -0.005389 0.159556
v 0.010572 -0.002118 0.130160
v 0.000000 -0.000892 0.130160
v -0.010572 -0.002118 0.130160
vt 0.8193 0.0012
vt 0.9508 0.0020
vt 0.9863 0.9988
vt 0.8588 0.9988
vt 0.0492 0.0020
vt 0.1807 0.0012
vt 0.1412 0.9988
vt 0.0137 0.9988
vt 0.5000 0.0012
vt 0.5000 0.9988
vn 0.2476 0.9612 0.1216
vn 0.3942 0.9111 0.1203
vn 0.2498 0.9606 0.1216
vn -0.3942 0.9111 0.1203
vn -0.2476 0.9612 0.1216
vn -0.2498 0.9606 0.1216
vn 0.0000 0.9927 0.1205
usemtl initialShadingGroup
s 1
f 7/1/1 2/2/2 4/3/2 8/4/3
f 1/5/4 5/6/5 10/7/6 3/8/4
f 5/6/5 6/9/7 9/10/7 10/7/6
f 6/9/7 7/1/1 8/4/3 9/10/7
