# Blender v2.77 (sub 0) OBJ File: 'vr_controller_lowpoly.blend'
# www.blender.org
mtllib trigger.mtl
o trigger_trigger_mesh
v -0.008616 -0.013000 0.039000
v -0.007616 -0.017000 0.057000
v 0.007616 -0.017000 0.057000
v 0.008616 -0.013000 0.039000
v 0.000000 -0.017000 0.057000
v 0.000000 -0.013000 0.037882
v -0.008616 -0.015000 0.048000
v 0.008616 -0.015000 0.048000
v -0.009532 -0.023000 0.047718
v -0.007616 -0.024000 0.052854
v 0.000000 -0.024000 0.056161
v 0.007616 -0.024000 0.052854
v 0.009532 -0.023000 0.047718
v 0.000000 -0.024572 0.040678
v -0.007648 -0.024000 0.042260
v 0.007648 -0.024000 0.042260
v -0.009813 -0.029500 0.049661
v -0.007616 -0.028500 0.052029
v 0.000000 -0.027420 0.053000
v 0.007616 -0.028500 0.052029
v 0.009813 -0.029500 0.049661
v 0.000000 -0.030749 0.045894
v -0.008521 -0.030000 0.047750
v 0.008521 -0.030000 0.047750
v -0.006616 -0.036109 0.051183
v -0.006000 -0.035000 0.052606
v 0.000000 -0.037000 0.052818
v 0.006000 -0.035000 0.052606
v 0.006616 -0.036109 0.051183
v 0.000000 -0.037000 0.049000
v -0.006406 -0.035332 0.049506
v 0.006406 -0.035332 0.049506
v 0.000000 -0.039000 0.051183
vt 0.0451 0.8669
vt 0.0482 0.8447
vt 0.0598 0.8464
vt 0.0493 0.4338
vt 0.0650 0.4382
vt 0.0461 0.4477
vt 0.0480 0.8877
vt 0.0616 0.8859
vt 0.0459 0.4812
vt 0.0627 0.4634
vt 0.0636 0.4841
vt 0.0266 0.8465
vt 0.0266 0.8669
vt 0.0511 0.9013
vt 0.0309 0.9084
vt 0.0266 0.8844
vt 0.0195 0.4424
vt 0.0327 0.4252
vt 0.0174 0.4632
vt 0.0446 0.4633
vt 0.0190 0.4844
vt 0.0744 0.8523
vt 0.0783 0.8497
vt 0.0850 0.8663
vt 0.0763 0.4504
vt 0.0641 0.4451
vt 0.0559 0.8669
vt 0.0745 0.8789
vt 0.0766 0.4778
vt 0.0790 0.4634
vt 0.0642 0.8934
vt 0.0512 0.8308
vt 0.0645 0.8384
vt 0.0493 0.4940
vt 0.0652 0.4894
vt 0.0860 0.4635
vt 0.0783 0.8812
vt 0.0305 0.8229
vt 0.0799 0.4797
vt 0.0782 0.8669
vt 0.0800 0.4472
vt 0.0320 0.5017
vn -0.3929 -0.1658 0.9045
vn 0.9469 -0.0538 -0.3170
vn 0.3929 -0.1658 0.9045
vn -0.2167 -0.6417 -0.7357
vn 0.0000 -0.1190 0.9929
vn 0.9851 0.1081 0.1335
vn 0.9933 0.1128 0.0251
vn 0.2136 -0.2294 -0.9496
vn -0.1230 -0.2919 -0.9485
vn 0.3500 -0.4774 0.8060
vn -0.2996 -0.6855 0.6636
vn 0.7899 -0.4503 -0.4162
vn 0.1340 0.0546 0.9895
vn -0.2287 -0.3851 -0.8941
vn 0.1835 -0.4375 -0.8803
vn 0.9163 0.1506 0.3711
vn -0.9163 0.1506 0.3711
vn -0.9469 -0.0538 -0.3170
vn 0.2020 -0.6318 -0.7483
vn 0.2383 -0.7161 -0.6561
vn 0.2996 -0.6855 0.6636
vn -0.9851 0.1081 0.1335
vn -0.2383 -0.7161 -0.6561
vn -0.1340 0.0546 0.9895
vn 0.7042 -0.1128 0.7010
vn -0.7042 -0.1128 0.7010
vn -0.8215 -0.4713 -0.3209
vn -0.0026 -0.6788 0.7343
vn 0.0026 -0.6788 0.7343
vn 0.0416 -0.0190 0.9990
vn 0.6992 -0.1289 0.7032
vn -0.6992 -0.1289 0.7032
vn 0.7963 -0.2593 0.5466
vn -0.7963 -0.2593 0.5466
vn -0.8226 -0.3140 -0.4740
vn -0.2020 -0.6318 -0.7483
vn -0.3500 -0.4774 0.8060
vn 0.9320 -0.1847 0.3117
vn -0.9320 -0.1847 0.3117
vn -0.9407 -0.1698 -0.2936
vn 0.1230 -0.2919 -0.9485
vn -0.2136 -0.2294 -0.9496
vn 0.9407 -0.1698 -0.2936
vn 0.8215 -0.4713 -0.3209
vn -0.1835 -0.4375 -0.8803
vn 0.2287 -0.3851 -0.8941
vn 0.2167 -0.6417 -0.7357
vn 0.2319 -0.6157 0.7531
vn -0.2319 -0.6157 0.7531
vn -0.3618 -0.8279 -0.4286
vn 0.3618 -0.8279 -0.4286
vn -0.7899 -0.4503 -0.4162
vn -0.9933 0.1128 0.0251
vn 0.8226 -0.3140 -0.4740
vn -0.0416 -0.0190 0.9990
usemtl vr_controller_lowpoly
s off
f 11/1/1 10/2/1 18/3/1
f 13/4/2 21/5/2 16/6/2
f 12/7/3 11/1/3 20/8/3
f 15/9/4 22/10/4 23/11/4
f 2/12/5 11/1/5 5/13/5
f 13/14/6 8/15/6 3/16/6
f 4/17/7 8/18/7 13/4/7
f 6/19/8 16/6/8 14/20/8
f 6/19/9 15/9/9 1/21/9
f 3/16/10 11/1/10 12/7/10
f 26/22/11 25/23/11 33/24/11
f 21/5/12 32/25/12 24/26/12
f 20/8/13 19/27/13 28/28/13
f 22/10/14 31/29/14 23/11/14
f 22/10/15 32/25/15 30/30/15
f 13/14/16 12/7/16 21/31/16
f 10/2/17 9/32/17 17/33/17
f 9/34/18 15/9/18 17/35/18
f 16/6/19 22/10/19 14/20/19
f 33/36/20 30/30/20 32/25/20
f 33/24/21 29/37/21 28/28/21
f 2/12/22 7/38/22 9/32/22
f 31/29/23 30/30/23 33/36/23
f 18/3/24 26/22/24 19/27/24
f 21/31/25 20/8/25 28/28/25
f 18/3/26 17/33/26 26/22/26
f 17/35/27 31/29/27 25/39/27
f 20/8/28 11/1/28 19/27/28
f 18/3/29 19/27/29 11/1/29
f 19/27/30 27/40/30 28/28/30
f 21/31/31 12/7/31 20/8/31
f 17/33/32 18/3/32 10/2/32
f 28/28/33 29/37/33 21/31/33
f 26/22/34 17/33/34 25/23/34
f 15/9/35 23/11/35 17/35/35
f 15/9/36 14/20/36 22/10/36
f 2/12/37 10/2/37 11/1/37
f 12/7/38 13/14/38 3/16/38
f 10/2/39 2/12/39 9/32/39
f 15/9/40 9/34/40 1/21/40
f 6/19/41 4/17/41 16/6/41
f 6/19/42 14/20/42 15/9/42
f 3/16/5 5/13/5 11/1/5
f 16/6/43 4/17/43 13/4/43
f 21/5/44 29/41/44 32/25/44
f 22/10/45 30/30/45 31/29/45
f 22/10/46 24/26/46 32/25/46
f 16/6/47 24/26/47 22/10/47
f 27/40/48 33/24/48 28/28/48
f 27/40/49 26/22/49 33/24/49
f 25/39/50 31/29/50 33/36/50
f 29/41/51 33/36/51 32/25/51
f 17/35/52 23/11/52 31/29/52
f 9/34/53 7/42/53 1/21/53
f 21/5/54 24/26/54 16/6/54
f 26/22/55 27/40/55 19/27/55
