# Blender v2.77 (sub 0) OBJ File: 'vr_controller_lowpoly.blend'
# www.blender.org
mtllib trackpad_touch.mtl
o trackpad_touch_track_touch_mesh
v 0.000000 0.000733 0.049093
v 0.002144 0.002371 0.050651
v -0.000819 0.002371 0.051614
v -0.002650 0.002371 0.049093
v -0.000819 0.002371 0.046573
v 0.002144 0.002371 0.047536
v 0.000819 0.005020 0.051614
v -0.002144 0.005020 0.050651
v -0.002144 0.005020 0.047536
v 0.000819 0.005020 0.046573
v 0.002650 0.005020 0.049093
v 0.000000 0.006658 0.049093
vt 0.9000 0.2435
vt 0.9056 0.2514
vt 0.8942 0.2513
vt 0.9093 0.2405
vt 0.8907 0.2404
vt 0.9000 0.2337
vt 0.9169 0.2491
vt 0.8998 0.2613
vt 0.8830 0.2488
vt 0.8896 0.2290
vt 0.9106 0.2291
vt 0.9103 0.2289
vt 0.9093 0.2403
vt 0.8999 0.2337
vt 0.8894 0.2292
vt 0.8908 0.2406
vt 0.8832 0.2492
vt 0.8945 0.2515
vt 0.9003 0.2613
vt 0.9059 0.2513
vt 0.9171 0.2488
vt 0.9001 0.2435
vn 0.1876 -0.7947 0.5774
vn 0.6071 -0.7947 0.0000
vn -0.4911 -0.7947 0.3568
vn -0.4911 -0.7947 -0.3568
vn 0.1876 -0.7947 -0.5774
vn 0.9822 -0.1876 0.0000
vn 0.3035 -0.1876 0.9342
vn -0.7946 -0.1876 0.5774
vn -0.7946 -0.1876 -0.5774
vn 0.3035 -0.1876 -0.9342
vn 0.7946 0.1876 0.5774
vn -0.3035 0.1876 0.9342
vn -0.9822 0.1876 0.0000
vn -0.3035 0.1876 -0.9342
vn 0.7946 0.1876 -0.5774
vn 0.4911 0.7947 0.3568
vn -0.1876 0.7947 0.5774
vn -0.6071 0.7947 0.0000
vn -0.1876 0.7947 -0.5774
vn 0.4911 0.7947 -0.3568
usemtl vr_controller_lowpoly
s off
f 1/1/1 2/2/1 3/3/1
f 2/2/2 1/1/2 6/4/2
f 1/1/3 3/3/3 4/5/3
f 1/1/4 4/5/4 5/6/4
f 1/1/5 5/6/5 6/4/5
f 2/2/6 6/4/6 11/7/6
f 3/3/7 2/2/7 7/8/7
f 4/5/8 3/3/8 8/9/8
f 5/6/9 4/5/9 9/10/9
f 6/4/10 5/6/10 10/11/10
f 2/12/11 11/13/11 7/14/11
f 3/15/12 7/14/12 8/16/12
f 4/17/13 8/16/13 9/18/13
f 5/19/14 9/18/14 10/20/14
f 6/21/15 10/20/15 11/13/15
f 7/14/16 11/13/16 12/22/16
f 8/16/17 7/14/17 12/22/17
f 9/18/18 8/16/18 12/22/18
f 10/20/19 9/18/19 12/22/19
f 11/13/20 10/20/20 12/22/20
