# Blender v2.77 (sub 0) OBJ File: 'vr_controller_lowpoly.blend'
# www.blender.org
mtllib trackpad_scroll_cut.mtl
o trackpad_scroll_cut_track_pad_scrollcut_mesh
v 0.000000 -0.000383 0.027168
v 0.000000 0.007353 0.028461
v 0.010650 0.007006 0.031293
v 0.010650 -0.000729 0.030000
v -0.010650 -0.000729 0.030000
v -0.010650 0.007006 0.031293
v 0.000000 0.004723 0.040301
v 0.005194 0.004313 0.043079
v 0.018446 0.006060 0.039032
v 0.018446 -0.001676 0.037739
v -0.018446 -0.001676 0.037739
v -0.018446 0.006060 0.039032
v -0.005194 0.004313 0.043079
v 0.021300 0.004767 0.049603
v 0.021300 -0.002969 0.048310
v -0.021300 -0.002969 0.048310
v -0.021300 0.004767 0.049603
v 0.006000 0.003165 0.049420
v 0.018446 0.003474 0.060174
v 0.018446 -0.004262 0.058881
v -0.018446 -0.004262 0.058881
v -0.018446 0.003474 0.060174
v -0.006000 0.003165 0.049420
v 0.010650 0.002527 0.067913
v 0.010650 -0.005208 0.066620
v -0.010650 -0.005208 0.066620
v -0.010650 0.002527 0.067913
v 0.000000 0.002181 0.070745
v 0.000000 -0.005555 0.069452
v 0.006000 0.002729 0.056514
v 0.000000 0.002351 0.059523
v -0.006000 0.002729 0.056514
v -0.001800 -0.010000 0.052875
v -0.001800 -0.010000 0.044125
v 0.000000 -0.010000 0.043075
v 0.000000 -0.010000 0.053925
v 0.001800 -0.010000 0.044125
v 0.001800 -0.010000 0.052875
v 0.001800 -0.010000 0.048500
v -0.001800 -0.010000 0.048500
v 0.000000 -0.010000 0.048500
vt 0.7178 0.8865
vt 0.7179 0.8823
vt 0.7428 0.8765
vt 0.7443 0.8800
vt 0.6910 0.8798
vt 0.6930 0.8765
vt 0.7414 0.8742
vt 0.7179 0.8797
vt 0.7180 0.8492
vt 0.7267 0.8444
vt 0.7620 0.8581
vt 0.7658 0.8602
vt 0.6697 0.8597
vt 0.6732 0.8586
vt 0.6940 0.8743
vt 0.7093 0.8445
vt 0.7281 0.8335
vt 0.7600 0.8569
vt 0.7691 0.8330
vt 0.7728 0.8328
vt 0.6625 0.8325
vt 0.6659 0.8327
vt 0.6751 0.8572
vt 0.7077 0.8336
vt 0.7663 0.8331
vt 0.7640 0.8070
vt 0.7668 0.8049
vt 0.6682 0.8051
vt 0.6713 0.8066
vt 0.6689 0.8328
vt 0.7613 0.8087
vt 0.7446 0.7868
vt 0.7461 0.7840
vt 0.6887 0.7839
vt 0.6905 0.7870
vt 0.6741 0.8083
vt 0.7281 0.8213
vt 0.7430 0.7898
vt 0.7175 0.7794
vt 0.7174 0.7761
vt 0.6923 0.7898
vt 0.7075 0.8215
vt 0.7175 0.7828
vt 0.7178 0.8161
vt 0.7134 0.8390
vt 0.7103 0.8334
vt 0.7178 0.8325
vt 0.7178 0.8336
vt 0.7183 0.8408
vt 0.7183 0.8339
vt 0.7178 0.8312
vt 0.7183 0.8308
vt 0.7183 0.8325
vt 0.7126 0.8265
vt 0.7184 0.8241
vt 0.7232 0.8390
vt 0.7188 0.8336
vt 0.7189 0.8312
vt 0.7189 0.8325
vt 0.7241 0.8265
vt 0.7263 0.8334
vn 0.2586 0.1593 -0.9528
vn -0.2586 0.1593 -0.9528
vn -0.0289 0.9765 0.2133
vn 0.7068 0.1166 -0.6978
vn -0.7068 0.1166 -0.6978
vn 0.0289 0.9765 0.2133
vn -0.0713 0.9793 0.1893
vn 0.9659 0.0427 -0.2555
vn -0.9659 0.0427 -0.2555
vn 0.0713 0.9793 0.1893
vn -0.1047 0.9833 0.1486
vn 0.9659 -0.0427 0.2555
vn -0.9659 -0.0427 0.2555
vn 0.1047 0.9833 0.1486
vn -0.1048 0.9902 0.0928
vn 0.7068 -0.1166 0.6978
vn -0.7068 -0.1166 0.6978
vn 0.1048 0.9902 0.0928
vn -0.0753 0.9957 0.0533
vn 0.2586 -0.1593 0.9528
vn -0.2586 -0.1593 0.9528
vn 0.0753 0.9957 0.0533
vn -0.0352 0.9991 0.0237
vn 0.0352 0.9991 0.0237
vn 0.9589 0.2654 0.1006
vn 0.4551 0.1649 0.8750
vn 0.0000 1.0000 0.0000
vn 0.4347 0.3718 -0.8202
vn -0.4957 0.1796 0.8497
vn -0.4347 0.3718 -0.8202
vn -0.9517 0.3067 0.0117
vn -0.4551 0.1649 0.8750
vn 0.4957 0.1796 0.8497
vn 0.4657 0.3819 -0.7983
vn -0.4657 0.3819 -0.7983
vn 0.9517 0.3067 0.0117
vn -0.9589 0.2654 0.1006
usemtl vr_controller_lowpoly
s off
f 1/1/1 2/2/1 3/3/1 4/4/1
f 5/5/2 6/6/2 2/2/2 1/1/2
f 3/7/3 2/8/3 7/9/3 8/10/3
f 4/4/4 3/3/4 9/11/4 10/12/4
f 11/13/5 12/14/5 6/6/5 5/5/5
f 2/8/6 6/15/6 13/16/6 7/9/6
f 18/17/7 9/18/7 3/7/7 8/10/7
f 10/12/8 9/11/8 14/19/8 15/20/8
f 16/21/9 17/22/9 12/14/9 11/13/9
f 13/16/10 6/15/10 12/23/10 23/24/10
f 18/17/11 14/25/11 9/18/11
f 15/20/12 14/19/12 19/26/12 20/27/12
f 21/28/13 22/29/13 17/22/13 16/21/13
f 23/24/14 12/23/14 17/30/14
f 18/17/15 19/31/15 14/25/15
f 20/27/16 19/26/16 24/32/16 25/33/16
f 26/34/17 27/35/17 22/29/17 21/28/17
f 23/24/18 17/30/18 22/36/18
f 30/37/19 24/38/19 19/31/19 18/17/19
f 25/33/20 24/32/20 28/39/20 29/40/20
f 29/40/21 28/39/21 27/35/21 26/34/21
f 23/24/22 22/36/22 27/41/22 32/42/22
f 28/43/23 24/38/23 30/37/23 31/44/23
f 27/41/24 28/43/24 31/44/24 32/42/24
f 13/45/25 23/46/25 40/47/25 34/48/25
f 7/49/26 13/45/26 35/50/26
f 33/51/27 36/52/27 41/53/27 40/47/27
f 32/54/28 31/55/28 36/52/28
f 8/56/29 35/50/29 37/57/29
f 36/52/27 38/58/27 39/59/27 41/53/27
f 31/55/30 30/60/30 36/52/30
f 30/60/31 18/61/31 39/59/31 38/58/31
f 35/50/32 8/56/32 7/49/32
f 35/50/33 13/45/33 34/48/33
f 36/52/34 33/51/34 32/54/34
f 36/52/35 30/60/35 38/58/35
f 40/47/36 23/46/36 32/54/36 33/51/36
f 39/59/37 18/61/37 8/56/37 37/57/37
f 41/53/27 39/59/27 37/57/27 35/50/27
f 40/47/27 41/53/27 35/50/27 34/48/27
