<svg xmlns="http://www.w3.org/2000/svg" width="512" height="512" viewBox="0 0 24 24"><path fill="#0f0406" d="M0 0h24v24H0z"/><path d="M18.118 7.45H5.84c-.455 0-.84.4-.84.89v7.32c0 .49.385.89.86.89H9.2c.378 0 .7-.224.812-.553l.973-2.43c.168-.405.56-.692 1.015-.692.455 0 .847.287 1.015.693l.973 2.43c.133.328.434.552.777.552h3.353c.497 0 .882-.4.882-.89V8.34c0-.49-.385-.89-.882-.89m-9.464 6.006c-.854 0-1.554-.72-1.554-1.603 0-.903.7-1.603 1.554-1.603.854 0 1.547.7 1.547 1.603 0 .882-.692 1.603-1.546 1.603m6.692 0c-.854 0-1.547-.72-1.547-1.603 0-.882.692-1.603 1.546-1.603.854 0 1.554.72 1.554 1.603 0 .882-.7 1.603-1.554 1.603z" fill="#fff"/><path fill="#f44336" d="M.154-.5L24.5 24l-.507.512L-.354.012z"/></svg>
