<svg xmlns="http://www.w3.org/2000/svg" width="2000" height="2000" viewBox="0 0 200 200"><g transform="translate(0 -97)"><path d="M100.258 297v-6.615h1.607V297z"/><circle cx="101.014" cy="287.929" r="1.984" fill="none" stroke="#000" stroke-width="1.323"/><circle cx="84.856" cy="271.203" r="1.984" fill="none" stroke="#000" stroke-width="1.323"/><path d="M86.022 273.575l1.007-1.007 13.095 13.096-1.007 1.007zM84.1 269.22v-14.553h1.606v14.552z"/><circle cx="84.667" cy="252.21" r="1.984" fill="none" stroke="#000" stroke-width="1.323"/><path d="M69.964 238.925l1.007-1.008 13.098 13.096-1.008 1.008zM98.802 237.602l1.008 1.007-13.096 13.095-1.008-1.007z"/><circle cx="69.453" cy="236.429" r="1.984" fill="none" stroke="#000" stroke-width="1.323"/><circle cx="101.109" cy="236.429" r="1.984" fill="none" stroke="#000" stroke-width="1.323"/><path d="M101.62 285.43l41.16-41.16 1.134 1.136-41.16 41.16zM68.508 234.823v-38.365h1.607v38.365zM143.63 241.438v-44.98h1.607v44.98z"/><circle cx="144.576" cy="243.422" r="1.984" fill="none" stroke="#000" stroke-width="1.323"/><path d="M146.844 244.083v-1.323h54.24v1.323z"/><circle cx="144.387" cy="194.001" r="1.984" fill="none" stroke="#000" stroke-width="1.323"/><path d="M100.542 234.823v-44.98h1.606v44.98zM142.143 194.03l-53.32-53.32 1.135-1.137 53.32 53.32z"/><circle cx="101.298" cy="187.387" r="1.984" fill="none" stroke="#000" stroke-width="1.323"/><circle cx="69.359" cy="194.285" r="1.984" fill="none" stroke="#000" stroke-width="1.323"/><path d="M-10.583 271.865v-1.323h93.927v1.323z"/><circle cx="101.298" cy="187.576" r="1.984" fill="none" stroke="#000" stroke-width="1.323"/><circle cx="88.163" cy="138.722" r="1.984" fill="none" stroke="#000" stroke-width="1.323"/><path d="M86.177 138.063l-53.32-53.32 1.135-1.136 53.32 53.32zM145.553 192.457l56.853-56.853 1.136 1.136-56.853 56.853zM87.313 136.927v-44.98h1.606v44.98z"/></g></svg>
