<svg xmlns="http://www.w3.org/2000/svg" width="32000" height="18000" viewBox="0 0 8.466667 4.7625002"><path d="M1.588.265L.265 1.852l1.323-.264V.265" fill="#659540"/><path d="M1.588.265v1.323l1.323.264L1.59.265" fill="#388744"/><path d="M1.588 1.588l-1.323.264 1.323.265v-.53" fill="#c33350"/><path d="M1.588 1.588v.53l1.323-.266-1.322-.264" fill="#213d3d"/><path d="M.265 1.852l1.323 2.646v-2.38z" fill="#a91d3a"/><path d="M1.588 2.117v2.38L2.91 1.852l-1.322.265" fill="#0a2828"/><path d="M1.06.9l-.265.317h.687"/><g style="line-height:20px" font-size="6666.667" font-family="Open Sans" letter-spacing="0" word-spacing="0"><path d="M3.995 2.89H3.12v-.065l.737-1.11h-.704V1.63h.822v.067l-.74 1.11h.76zM4.6 2.908q-.204 0-.32-.126-.112-.126-.112-.352 0-.224.11-.36.11-.134.297-.134.165 0 .26.115.097.117.097.315v.07h-.675q.002.192.09.293.09.102.253.102.08 0 .14-.01.062-.012.155-.05v.078q-.08.035-.147.047-.067.013-.148.013zm-.025-.896q-.135 0-.217.09-.082.088-.096.256h.58q0-.163-.07-.254-.072-.092-.197-.092zM5.964 2.42q0 .23-.11.36-.112.128-.307.128-.124 0-.217-.06-.094-.06-.144-.17-.05-.11-.05-.257 0-.228.11-.356.112-.128.306-.128.193 0 .302.13.11.13.11.355zm-.74 0q0 .194.086.302.085.108.24.108.155 0 .24-.108.085-.108.085-.3 0-.195-.086-.302-.087-.106-.242-.106t-.24.106q-.083.106-.083.3z" style="-inkscape-font-specification:'Open Sans Light'" font-weight="300"/><path d="M6.96 1.63h.157l-.454 1.26h-.145l-.45-1.26h.154l.29.816q.05.14.078.273.03-.14.08-.28zM7.437 2.367v.523H7.29V1.63h.346q.232 0 .342.09.11.09.11.267 0 .25-.252.338l.342.565h-.173L7.7 2.367zm0-.126h.2q.156 0 .228-.06.072-.062.072-.185 0-.125-.074-.18-.073-.055-.236-.055h-.19z" style="-inkscape-font-specification:'Open Sans'"/></g></svg>