<svg xmlns="http://www.w3.org/2000/svg" width="32015" height="16000" viewBox="0 0 8.4706357 4.2333336"><path d="M1.323 0L0 1.587l1.323-.264V0" fill="#659540"/><path d="M1.323 0v1.323l1.323.264L1.323 0" fill="#388744"/><path d="M1.323 1.323L0 1.587l1.323.265v-.53" fill="#c33350"/><path d="M1.323 1.323v.53l1.323-.266-1.323-.264" fill="#213d3d"/><path d="M0 1.587l1.323 2.646v-2.38z" fill="#a91d3a"/><path d="M1.323 1.852v2.38l1.323-2.645-1.323.265" fill="#0a2828"/><path d="M.794.635L.53.952h.687"/><g style="line-height:1000px;-inkscape-font-specification:'Open Sans'" font-size="40" font-family="Open Sans" letter-spacing="0" word-spacing="0"><path d="M3.73 2.625h-.875V2.56l.737-1.112H2.89v-.082h.82v.065l-.74 1.112h.76zM4.336 2.642q-.204 0-.32-.126-.113-.125-.113-.352 0-.224.11-.358.11-.135.298-.135.166 0 .262.116.095.115.095.314v.068h-.674q.002.193.09.295.088.102.253.102.08 0 .14-.012.06-.01.154-.048v.078q-.08.034-.146.046-.067.012-.148.012zm-.025-.896q-.135 0-.216.09-.082.09-.096.257h.58q0-.163-.072-.254-.07-.094-.195-.094zM5.7 2.156q0 .23-.11.358-.112.128-.308.128-.123 0-.217-.06t-.144-.17q-.05-.11-.05-.256 0-.23.113-.357.11-.13.304-.13.193 0 .303.13.11.13.11.356zm-.74 0q0 .192.085.3.086.11.24.11.156 0 .24-.11.085-.108.085-.3 0-.194-.086-.3-.085-.108-.24-.108-.155 0-.24.107-.083.106-.083.3z" style="-inkscape-font-specification:'Open Sans Light'" font-weight="300"/><path d="M7.144 1.366h.214l-.44 1.26H6.7l-.44-1.26h.213l.262.783q.02.055.044.143.022.088.03.13.01-.064.034-.15.023-.086.038-.128zM7.732 1.95h.143q.144 0 .208-.052.065-.053.065-.158 0-.107-.07-.154-.07-.046-.21-.046h-.136zm0 .172v.503h-.206v-1.26h.356q.243 0 .36.092.118.09.118.276 0 .235-.245.335l.356.557h-.234l-.3-.503z" style="line-height:100%;-inkscape-font-specification:'Open Sans Semi-Bold'" font-weight="600" font-size="6666.667"/></g></svg>