# Blender v2.77 (sub 0) OBJ File: 'vr_controller_lowpoly.blend'
# www.blender.org
mtllib r_grip.mtl
o r_grip_r_grip_mesh
v 0.011930 -0.013407 0.071837
v 0.013214 -0.006703 0.076290
v 0.009033 -0.020564 0.097055
v 0.010344 -0.019302 0.075436
v 0.012580 -0.009103 0.099936
v 0.010604 -0.016171 0.101709
v 0.022129 -0.008837 0.077259
v 0.021082 -0.014260 0.073157
v 0.016295 -0.019932 0.095766
v 0.018021 -0.018448 0.076944
v 0.019498 -0.016183 0.100686
v 0.020932 -0.010608 0.099172
v 0.009688 -0.019933 0.086245
v 0.012897 -0.007903 0.088113
v 0.017158 -0.019190 0.086355
v 0.021611 -0.009722 0.088216
v 0.020368 -0.015679 0.086921
vt 0.8864 0.0619
vt 0.8816 0.0976
vt 0.8165 0.0975
vt 0.8050 0.0653
vt 0.8881 0.0409
vt 0.8323 0.0409
vt 0.8884 0.0365
vt 0.9525 0.0352
vt 0.9440 0.0409
vt 0.9765 0.0683
vt 0.9683 0.0638
vt 0.7990 0.0659
vt 0.8244 0.0378
vt 0.9533 0.1099
vt 0.9466 0.0978
vt 0.8830 0.1083
vt 0.8127 0.1068
vn 0.9732 -0.2249 0.0484
vn 0.7419 -0.6702 0.0195
vn 0.1109 -0.9921 -0.0591
vn 0.1295 -0.6242 -0.7705
vn 0.1172 -0.7846 0.6088
vn 0.1931 0.5405 -0.8189
vn 0.1939 0.9761 0.0979
vn 0.1196 0.2194 0.9683
vn 0.2122 0.9724 0.0968
vn 0.0880 -0.9943 -0.0609
vn 0.7740 -0.6332 -0.0064
vn 0.9772 -0.2103 0.0291
usemtl vr_controller_lowpoly
s off
f 17/1/1 16/2/1 12/3/1 11/4/1
f 15/5/2 17/1/2 11/4/2 9/6/2
f 13/7/3 4/8/3 10/9/3 15/5/3
f 4/8/4 1/10/4 8/11/4 10/9/4
f 6/12/5 3/13/5 9/6/5 11/4/5
f 1/10/6 2/14/6 7/15/6 8/11/6
f 14/16/7 5/17/7 12/3/7 16/2/7
f 5/17/8 6/12/8 11/4/8 12/3/8
f 2/14/9 14/16/9 16/2/9 7/15/9
f 3/13/10 13/7/10 15/5/10 9/6/10
f 10/9/11 8/11/11 17/1/11 15/5/11
f 8/11/12 7/15/12 16/2/12 17/1/12
