# Blender v2.77 (sub 0) OBJ File: 'vr_controller_lowpoly.blend'
# www.blender.org
mtllib sys_button.mtl
o sys_button_sys_button_mesh
v 0.000000 0.002250 0.082390
v -0.005165 0.001832 0.085679
v -0.005151 0.001248 0.091339
v 0.005165 0.001832 0.085679
v 0.005151 0.001248 0.091339
v 0.000000 0.000982 0.094438
v 0.000000 0.004286 0.083933
v -0.003954 0.003844 0.086451
v -0.003943 0.003460 0.090784
v 0.003954 0.003844 0.086451
v 0.003943 0.003460 0.090784
v 0.000000 0.003315 0.093157
vt 0.4186 0.5432
vt 0.4426 0.5571
vt 0.4422 0.5829
vt 0.4184 0.5955
vt 0.3946 0.5569
vt 0.3947 0.5827
vt 0.4518 0.5855
vt 0.4184 0.6061
vt 0.4507 0.5493
vt 0.3852 0.5853
vt 0.4187 0.5321
vt 0.3865 0.5491
vn 0.0355 0.9944 0.0994
vn -0.0355 0.9944 0.0994
vn 0.4881 0.5386 -0.6868
vn 0.8680 0.4941 0.0500
vn -0.4881 0.5386 -0.6868
vn 0.4499 0.4346 0.7802
vn -0.4499 0.4346 0.7802
vn -0.8680 0.4941 0.0500
usemtl vr_controller_lowpoly
s off
f 12/1/1 11/2/1 10/3/1 7/4/1
f 9/5/2 12/1/2 7/4/2 8/6/2
f 4/7/3 1/8/3 7/4/3 10/3/3
f 5/9/4 4/7/4 10/3/4 11/2/4
f 1/8/5 2/10/5 8/6/5 7/4/5
f 6/11/6 5/9/6 11/2/6 12/1/6
f 3/12/7 6/11/7 12/1/7 9/5/7
f 2/10/8 3/12/8 9/5/8 8/6/8
