<svg id="Layer_2" data-name="Layer 2" xmlns="http://www.w3.org/2000/svg" viewBox="0 0 1420.18 558.29" width="1920" height="754.77"><defs><style>.cls-1{fill:#717471;opacity:0.4;}.cls-13,.cls-2{fill:#78867b;}.cls-2,.cls-26{stroke:#989898;}.cls-14,.cls-25,.cls-3,.cls-5,.cls-6,.cls-7{fill:#fff;}.cls-24,.cls-3{opacity:0.5;}.cls-14,.cls-4,.cls-5{font-size:9.78px;}.cls-18,.cls-19,.cls-4{fill:#fdfffd;}.cls-18,.cls-4,.cls-5,.cls-6,.cls-7{font-family:OpenSans-Bold, Open Sans;}.cls-18,.cls-19,.cls-4,.cls-5,.cls-6,.cls-7{font-weight:700;}.cls-6{font-size:11.74px;}.cls-18,.cls-19,.cls-7{font-size:11px;}.cls-11,.cls-8{fill:none;}.cls-20,.cls-23,.cls-8,.cls-9{stroke:#fff;stroke-miterlimit:10;}.cls-20,.cls-8,.cls-9{stroke-width:0.75px;}.cls-12,.cls-20,.cls-9{fill:#c2c4c2;}.cls-10,.cls-9{opacity:0.25;}.cls-14{font-family:OpenSans-Regular, OpenSans Regular;}.cls-15{letter-spacing:-0.01em;}.cls-16{letter-spacing:0.02em;}.cls-17{letter-spacing:-0.01em;}.cls-19{font-family:OpenSans-SemiBold, Open Sans;}.cls-21{fill:#ffae43;}.cls-22{fill:#43ff56;}.cls-23,.cls-26{fill:#959994;}</style></defs><title>menu</title><rect class="cls-1" x="629" y="44.83" width="373.5" height="513.47" rx="6.67" ry="6.67"/><rect class="cls-1" x="379.6" width="622.9" height="37.54" rx="6.67" ry="6.67"/><rect class="cls-2" x="867.17" y="98.83" width="95.33" height="95.33" rx="6.67" ry="6.67"/><rect class="cls-2" x="867.17" y="211.83" width="95.33" height="95.33" rx="6.67" ry="6.67"/><rect class="cls-2" x="755.67" y="211.83" width="95.33" height="95.33" rx="6.67" ry="6.67"/><rect class="cls-2" x="644.17" y="211.83" width="95.33" height="95.33" rx="6.67" ry="6.67"/><rect class="cls-3" x="379.6" y="321.82" width="36.17" height="89.67" rx="6.67" ry="6.67"/><text class="cls-4" transform="translate(643.85 68.35)">Items</text><text class="cls-5" transform="translate(444.85 68.35)">Equipment</text><text class="cls-4" transform="translate(735.67 68.35)">Mods</text><text class="cls-4" transform="translate(828.97 68.35)">Files</text><text class="cls-4" transform="translate(918.22 68.35)">Skins</text><text class="cls-6" transform="translate(921.81 23.31)">INVENTORY</text><text class="cls-7" transform="translate(0.5 18.77)">Server</text><line class="cls-8" x1="0.5" y1="37.46" x2="338.5" y2="37.46"/><line class="cls-9" x1="1079.58" y1="36.42" x2="1417.58" y2="36.42"/><line class="cls-9" x1="629" y1="84" x2="1002.5" y2="84"/><line class="cls-9" x1="424.6" y1="84" x2="613.67" y2="84"/><g class="cls-10"><line class="cls-11" x1="691.45" y1="259.4" x2="684.89" y2="259.4"/><line class="cls-11" x1="698.77" y1="259.4" x2="692.21" y2="259.4"/><path class="cls-12" d="M740.31,278.1a.38.38,0,0,1-.37.37h-6.56V285a.38.38,0,0,1-.76,0v-6.57h-6.56a.38.38,0,0,1,0-.75h6.56v-6.56a.38.38,0,1,1,.76,0v6.56h6.56A.38.38,0,0,1,740.31,278.1Z" transform="translate(-41.17 -18.71)"/></g><g class="cls-10"><line class="cls-11" x1="803.51" y1="259.5" x2="796.95" y2="259.5"/><line class="cls-11" x1="810.83" y1="259.5" x2="804.27" y2="259.5"/><path class="cls-12" d="M852.37,278.21a.38.38,0,0,1-.37.37h-6.56v6.57a.38.38,0,0,1-.76,0v-6.57h-6.56a.38.38,0,0,1-.37-.37.37.37,0,0,1,.37-.38h6.56v-6.56a.38.38,0,1,1,.76,0v6.56H852A.37.37,0,0,1,852.37,278.21Z" transform="translate(-41.17 -18.71)"/></g><g class="cls-10"><line class="cls-11" x1="914.28" y1="259.4" x2="907.88" y2="259.4"/><line class="cls-11" x1="921.41" y1="259.4" x2="915.02" y2="259.4"/><path class="cls-12" d="M962.94,278.11a.37.37,0,0,1-.36.37h-6.39v6.57a.38.38,0,0,1-.75,0v-6.57h-6.39a.38.38,0,0,1,0-.75h6.39v-6.56a.38.38,0,1,1,.75,0v6.56h6.39A.38.38,0,0,1,962.94,278.11Z" transform="translate(-41.17 -18.71)"/></g><g class="cls-10"><line class="cls-11" x1="914.45" y1="146.5" x2="907.89" y2="146.5"/><line class="cls-11" x1="921.77" y1="146.5" x2="915.21" y2="146.5"/><path class="cls-12" d="M963.31,165.21a.38.38,0,0,1-.37.37h-6.56v6.57a.38.38,0,0,1-.76,0v-6.57h-6.56a.38.38,0,0,1-.37-.37.37.37,0,0,1,.37-.38h6.56v-6.56a.38.38,0,1,1,.76,0v6.56h6.56A.37.37,0,0,1,963.31,165.21Z" transform="translate(-41.17 -18.71)"/></g><rect class="cls-13" x="979.75" y="99.49" width="6.63" height="439.92"/><text class="cls-14" transform="translate(1117.77 123.66)">420Bla<tspan class="cls-15" x="27.39" y="0">z</tspan><tspan x="31.5" y="0">e</tspan><tspan class="cls-16" x="36.41" y="0">I</tspan><tspan x="38.9" y="0">t</tspan><tspan class="cls-17" x="42.14" y="0">XX</tspan><tspan x="53.02" y="0">X</tspan></text><text class="cls-14" transform="translate(1117.77 176.95)">asdf123</text><text class="cls-18" transform="translate(1079.58 77.95)">VRServer</text><text class="cls-19" transform="translate(1079.96 21.11)">Status</text><text class="cls-18" transform="translate(1363.46 77.95)">2 Player(s)</text><line class="cls-8" x1="1079.58" y1="35.94" x2="1417.58" y2="35.94"/><line class="cls-9" x1="1079.58" y1="92.78" x2="1417.58" y2="92.78"/><line class="cls-9" x1="1079.58" y1="146.28" x2="1417.58" y2="146.28"/><circle class="cls-20" cx="1091.83" cy="120.28" r="12.25"/><circle class="cls-20" cx="1091.83" cy="172.28" r="12.25"/><circle class="cls-21" cx="1102.92" cy="164.86" r="4.83"/><circle class="cls-22" cx="1102.92" cy="111.53" r="4.83"/><g class="cls-10"><line class="cls-11" x1="45.33" y1="119.91" x2="38.77" y2="119.91"/><line class="cls-11" x1="52.65" y1="119.91" x2="46.09" y2="119.91"/><path class="cls-12" d="M94.19,138.61a.38.38,0,0,1-.37.37H87.26v6.57a.38.38,0,0,1-.76,0V139H79.94a.38.38,0,0,1,0-.75H86.5v-6.56a.38.38,0,0,1,.76,0v6.56h6.56A.38.38,0,0,1,94.19,138.61Z" transform="translate(-41.17 -18.71)"/></g><rect class="cls-23" x="424.6" y="321.82" width="189.07" height="89.67" rx="6.67" ry="6.67"/><g class="cls-24"><line class="cls-25" x1="518.37" y1="366.28" x2="511.81" y2="366.28"/><line class="cls-25" x1="525.69" y1="366.28" x2="519.13" y2="366.28"/><path class="cls-25" d="M567.23,385a.38.38,0,0,1-.37.37H560.3v6.57a.38.38,0,0,1-.76,0v-6.57H553a.38.38,0,0,1,0-.75h6.56v-6.56a.38.38,0,1,1,.76,0v6.56h6.56A.38.38,0,0,1,567.23,385Z" transform="translate(-41.17 -18.71)"/></g><circle class="cls-20" cx="401.33" cy="19.44" r="12.25"/><rect class="cls-2" x="867.17" y="327.96" width="95.33" height="95.33" rx="6.67" ry="6.67"/><rect class="cls-2" x="755.67" y="327.96" width="95.33" height="95.33" rx="6.67" ry="6.67"/><rect class="cls-2" x="644.17" y="327.96" width="95.33" height="95.33" rx="6.67" ry="6.67"/><g class="cls-10"><line class="cls-11" x1="691.45" y1="375.53" x2="684.89" y2="375.53"/><line class="cls-11" x1="698.77" y1="375.53" x2="692.21" y2="375.53"/><path class="cls-12" d="M740.31,394.23a.38.38,0,0,1-.37.37h-6.56v6.57a.38.38,0,0,1-.76,0V394.6h-6.56a.38.38,0,0,1,0-.75h6.56v-6.56a.38.38,0,0,1,.76,0v6.56h6.56A.38.38,0,0,1,740.31,394.23Z" transform="translate(-41.17 -18.71)"/></g><g class="cls-10"><line class="cls-11" x1="803.51" y1="375.63" x2="796.95" y2="375.63"/><line class="cls-11" x1="810.83" y1="375.63" x2="804.27" y2="375.63"/><path class="cls-12" d="M852.37,394.33a.38.38,0,0,1-.37.37h-6.56v6.57a.38.38,0,0,1-.76,0V394.7h-6.56a.38.38,0,0,1,0-.75h6.56v-6.56a.38.38,0,0,1,.76,0V394H852A.38.38,0,0,1,852.37,394.33Z" transform="translate(-41.17 -18.71)"/></g><g class="cls-10"><line class="cls-11" x1="914.28" y1="375.53" x2="907.88" y2="375.53"/><line class="cls-11" x1="921.41" y1="375.53" x2="915.02" y2="375.53"/><path class="cls-12" d="M962.94,394.24a.37.37,0,0,1-.36.37h-6.39v6.57a.38.38,0,0,1-.75,0v-6.57h-6.39a.38.38,0,0,1,0-.75h6.39V387.3a.38.38,0,1,1,.75,0v6.56h6.39A.38.38,0,0,1,962.94,394.24Z" transform="translate(-41.17 -18.71)"/></g><rect class="cls-2" x="867.73" y="444.08" width="95.33" height="95.33" rx="6.67" ry="6.67"/><rect class="cls-2" x="756.23" y="444.08" width="95.33" height="95.33" rx="6.67" ry="6.67"/><rect class="cls-2" x="644.73" y="444.08" width="95.33" height="95.33" rx="6.67" ry="6.67"/><g class="cls-10"><line class="cls-11" x1="692.01" y1="491.65" x2="685.45" y2="491.65"/><line class="cls-11" x1="699.33" y1="491.65" x2="692.77" y2="491.65"/><path class="cls-12" d="M740.87,510.36a.38.38,0,0,1-.37.37h-6.56v6.57a.38.38,0,0,1-.76,0v-6.57h-6.56a.38.38,0,0,1,0-.75h6.56v-6.56a.38.38,0,0,1,.76,0V510h6.56A.38.38,0,0,1,740.87,510.36Z" transform="translate(-41.17 -18.71)"/></g><g class="cls-10"><line class="cls-11" x1="804.07" y1="491.76" x2="797.51" y2="491.76"/><line class="cls-11" x1="811.39" y1="491.76" x2="804.83" y2="491.76"/><path class="cls-12" d="M852.93,510.46a.38.38,0,0,1-.37.37H846v6.57a.38.38,0,0,1-.76,0v-6.57h-6.56a.38.38,0,0,1,0-.75h6.56v-6.56a.38.38,0,1,1,.76,0v6.56h6.56A.38.38,0,0,1,852.93,510.46Z" transform="translate(-41.17 -18.71)"/></g><g class="cls-10"><line class="cls-11" x1="914.84" y1="491.66" x2="908.44" y2="491.66"/><line class="cls-11" x1="921.97" y1="491.66" x2="915.58" y2="491.66"/><path class="cls-12" d="M963.5,510.36a.37.37,0,0,1-.36.37h-6.39v6.57a.38.38,0,0,1-.75,0v-6.57h-6.39a.38.38,0,0,1,0-.75H956v-6.56a.38.38,0,1,1,.75,0V510h6.39A.38.38,0,0,1,963.5,510.36Z" transform="translate(-41.17 -18.71)"/></g><rect class="cls-3" x="379.6" y="434.35" width="36.17" height="89.67" rx="6.67" ry="6.67"/><rect class="cls-23" x="424.6" y="434.35" width="189.07" height="89.67" rx="6.67" ry="6.67"/><g class="cls-24"><line class="cls-25" x1="518.37" y1="478.81" x2="511.81" y2="478.81"/><line class="cls-25" x1="525.69" y1="478.81" x2="519.13" y2="478.81"/><path class="cls-25" d="M567.23,497.52a.38.38,0,0,1-.37.37H560.3v6.57a.38.38,0,0,1-.76,0v-6.57H553a.38.38,0,0,1-.37-.37.37.37,0,0,1,.37-.38h6.56v-6.56a.38.38,0,0,1,.76,0v6.56h6.56A.37.37,0,0,1,567.23,497.52Z" transform="translate(-41.17 -18.71)"/></g><text class="cls-5" transform="translate(424.6 22.45)">Avaer</text><path class="cls-25" d="M952.27,38V39H951.1V38a.59.59,0,1,1,1.17,0Z" transform="translate(-41.17 -18.71)"/><path class="cls-25" d="M948.81,38V39h-1.17V38a.59.59,0,1,1,1.17,0Z" transform="translate(-41.17 -18.71)"/><path class="cls-25" d="M954.31,34.58v3.6a.79.79,0,0,1-.78.79h-1V38a.84.84,0,1,0-1.67,0V39h-1.79V38a.84.84,0,0,0-.83-.84.85.85,0,0,0-.84.84V39h-.8a.79.79,0,0,1-.78-.79v-3.6a1.78,1.78,0,0,1,1.78-1.78h4.94A1.78,1.78,0,0,1,954.31,34.58Z" transform="translate(-41.17 -18.71)"/><path class="cls-25" d="M951.1,39.9v-.75h1.17v.75a.59.59,0,1,1-1.17,0Z" transform="translate(-41.17 -18.71)"/><path class="cls-25" d="M947.64,39.9v-.75h1.17v.75a.59.59,0,1,1-1.17,0Z" transform="translate(-41.17 -18.71)"/><path class="cls-25" d="M954.31,39.8v2.53a1.38,1.38,0,0,1-1.37,1.37h-5.76a1.38,1.38,0,0,1-1.37-1.37V39.8a.66.66,0,0,1,.65-.65h.93v.75a.85.85,0,0,0,.84.84.84.84,0,0,0,.83-.84v-.75h1.79v.75a.84.84,0,1,0,1.67,0v-.75h1.14A.66.66,0,0,1,954.31,39.8Z" transform="translate(-41.17 -18.71)"/><path class="cls-25" d="M948.81,38V39.9a.59.59,0,1,1-1.17,0V38a.59.59,0,1,1,1.17,0Z" transform="translate(-41.17 -18.71)"/><rect class="cls-25" x="902.98" y="20.45" width="1.42" height="3.29" rx="0.71" ry="0.71"/><rect class="cls-25" x="913.42" y="20.45" width="1.42" height="3.29" rx="0.71" ry="0.71"/><path class="cls-25" d="M950.68,31.26H949.5a1,1,0,0,0-1,1v1.28a1,1,0,0,0,1,1h1.18a1,1,0,0,0,1-1V32.26A1,1,0,0,0,950.68,31.26Zm.6,1.86a1,1,0,0,1-1,1h-.36a1,1,0,0,1-1-1v-.44a1,1,0,0,1,1-1h.36a1,1,0,0,1,1,1Z" transform="translate(-41.17 -18.71)"/><path class="cls-25" d="M952.27,38V39.9a.59.59,0,1,1-1.17,0V38a.59.59,0,1,1,1.17,0Z" transform="translate(-41.17 -18.71)"/><rect class="cls-26" x="223.5" y="75.96" width="95.33" height="95.33" rx="6.67" ry="6.67"/><rect class="cls-26" x="223.5" y="188.96" width="95.33" height="95.33" rx="6.67" ry="6.67"/><rect class="cls-26" x="112" y="188.96" width="95.33" height="95.33" rx="6.67" ry="6.67"/><rect class="cls-26" x="0.5" y="188.96" width="95.33" height="95.33" rx="6.67" ry="6.67"/><g class="cls-10"><line class="cls-11" x1="47.79" y1="236.53" x2="41.23" y2="236.53"/><line class="cls-11" x1="55.11" y1="236.53" x2="48.55" y2="236.53"/><path class="cls-12" d="M96.64,255.23a.38.38,0,0,1-.37.37H89.71v6.57a.38.38,0,0,1-.76,0V255.6H82.39a.38.38,0,0,1,0-.75H89v-6.56a.38.38,0,0,1,.76,0v6.56h6.56A.38.38,0,0,1,96.64,255.23Z" transform="translate(-41.17 -18.71)"/></g><g class="cls-10"><line class="cls-11" x1="159.85" y1="236.63" x2="153.29" y2="236.63"/><line class="cls-11" x1="167.17" y1="236.63" x2="160.61" y2="236.63"/><path class="cls-12" d="M208.7,255.33a.38.38,0,0,1-.37.37h-6.56v6.57a.38.38,0,0,1-.76,0V255.7h-6.56a.38.38,0,0,1,0-.75H201v-6.56a.38.38,0,0,1,.76,0V255h6.56A.38.38,0,0,1,208.7,255.33Z" transform="translate(-41.17 -18.71)"/></g><g class="cls-10"><line class="cls-11" x1="270.61" y1="236.53" x2="264.22" y2="236.53"/><line class="cls-11" x1="277.75" y1="236.53" x2="271.35" y2="236.53"/><path class="cls-12" d="M319.27,255.24a.37.37,0,0,1-.36.37h-6.39v6.57a.38.38,0,0,1-.37.37.37.37,0,0,1-.37-.37v-6.57h-6.4a.38.38,0,0,1,0-.75h6.4V248.3a.37.37,0,0,1,.37-.38.38.38,0,0,1,.37.38v6.56h6.39A.37.37,0,0,1,319.27,255.24Z" transform="translate(-41.17 -18.71)"/></g><g class="cls-10"><line class="cls-11" x1="270.79" y1="123.63" x2="264.23" y2="123.63"/><line class="cls-11" x1="278.11" y1="123.63" x2="271.55" y2="123.63"/><path class="cls-12" d="M319.64,142.34a.38.38,0,0,1-.37.37h-6.56v6.57a.38.38,0,0,1-.76,0v-6.57h-6.56a.38.38,0,0,1,0-.75H312V135.4a.38.38,0,0,1,.76,0V142h6.56A.38.38,0,0,1,319.64,142.34Z" transform="translate(-41.17 -18.71)"/></g><rect class="cls-26" x="223.5" y="305.09" width="95.33" height="95.33" rx="6.67" ry="6.67"/><rect class="cls-26" x="112" y="305.09" width="95.33" height="95.33" rx="6.67" ry="6.67"/><rect class="cls-26" x="0.5" y="305.09" width="95.33" height="95.33" rx="6.67" ry="6.67"/><g class="cls-10"><line class="cls-11" x1="47.79" y1="352.66" x2="41.23" y2="352.66"/><line class="cls-11" x1="55.11" y1="352.66" x2="48.55" y2="352.66"/><path class="cls-12" d="M96.64,371.36a.38.38,0,0,1-.37.37H89.71v6.57a.38.38,0,0,1-.76,0v-6.57H82.39a.38.38,0,0,1,0-.75H89v-6.56a.38.38,0,0,1,.76,0V371h6.56A.38.38,0,0,1,96.64,371.36Z" transform="translate(-41.17 -18.71)"/></g><g class="cls-10"><line class="cls-11" x1="159.85" y1="352.76" x2="153.29" y2="352.76"/><line class="cls-11" x1="167.17" y1="352.76" x2="160.61" y2="352.76"/><path class="cls-12" d="M208.7,371.46a.38.38,0,0,1-.37.37h-6.56v6.57a.38.38,0,0,1-.76,0v-6.57h-6.56a.38.38,0,0,1,0-.75H201v-6.56a.38.38,0,1,1,.76,0v6.56h6.56A.38.38,0,0,1,208.7,371.46Z" transform="translate(-41.17 -18.71)"/></g><g class="cls-10"><line class="cls-11" x1="270.61" y1="352.66" x2="264.22" y2="352.66"/><line class="cls-11" x1="277.75" y1="352.66" x2="271.35" y2="352.66"/><path class="cls-12" d="M319.27,371.37a.37.37,0,0,1-.36.37h-6.39v6.57a.38.38,0,0,1-.37.37.37.37,0,0,1-.37-.37v-6.57h-6.4a.38.38,0,0,1,0-.75h6.4v-6.56a.37.37,0,0,1,.37-.38.38.38,0,0,1,.37.38V371h6.39A.37.37,0,0,1,319.27,371.37Z" transform="translate(-41.17 -18.71)"/></g><rect class="cls-26" x="224.06" y="421.21" width="95.33" height="95.33" rx="6.67" ry="6.67"/><rect class="cls-26" x="112.56" y="421.21" width="95.33" height="95.33" rx="6.67" ry="6.67"/><rect class="cls-26" x="1.06" y="421.21" width="95.33" height="95.33" rx="6.67" ry="6.67"/><g class="cls-10"><line class="cls-11" x1="48.35" y1="468.78" x2="41.79" y2="468.78"/><line class="cls-11" x1="55.67" y1="468.78" x2="49.11" y2="468.78"/><path class="cls-12" d="M97.2,487.49a.38.38,0,0,1-.37.37H90.27v6.57a.38.38,0,0,1-.76,0v-6.57H83a.38.38,0,0,1,0-.75h6.56v-6.56a.38.38,0,0,1,.76,0v6.56h6.56A.38.38,0,0,1,97.2,487.49Z" transform="translate(-41.17 -18.71)"/></g><g class="cls-10"><line class="cls-11" x1="160.41" y1="468.88" x2="153.85" y2="468.88"/><line class="cls-11" x1="167.73" y1="468.88" x2="161.17" y2="468.88"/><path class="cls-12" d="M209.26,487.59a.38.38,0,0,1-.37.37h-6.56v6.57a.38.38,0,0,1-.76,0V488H195a.38.38,0,0,1,0-.75h6.56v-6.56a.38.38,0,1,1,.76,0v6.56h6.56A.38.38,0,0,1,209.26,487.59Z" transform="translate(-41.17 -18.71)"/></g><g class="cls-10"><line class="cls-11" x1="271.17" y1="468.79" x2="264.78" y2="468.79"/><line class="cls-11" x1="278.31" y1="468.79" x2="271.91" y2="468.79"/><path class="cls-12" d="M319.83,487.49a.37.37,0,0,1-.36.37h-6.39v6.57a.38.38,0,0,1-.37.37.37.37,0,0,1-.37-.37v-6.57h-6.4a.38.38,0,0,1,0-.75h6.4v-6.56a.37.37,0,0,1,.37-.38.38.38,0,0,1,.37.38v6.56h6.39A.37.37,0,0,1,319.83,487.49Z" transform="translate(-41.17 -18.71)"/></g><rect class="cls-26" x="112.56" y="75.97" width="95.33" height="95.33" rx="6.67" ry="6.67"/><g class="cls-10"><line class="cls-11" x1="159.85" y1="123.64" x2="153.29" y2="123.64"/><line class="cls-11" x1="167.17" y1="123.64" x2="160.61" y2="123.64"/><path class="cls-12" d="M208.7,142.34a.38.38,0,0,1-.37.37h-6.56v6.57a.38.38,0,0,1-.76,0v-6.57h-6.56a.38.38,0,0,1,0-.75H201V135.4a.38.38,0,0,1,.76,0V142h6.56A.38.38,0,0,1,208.7,142.34Z" transform="translate(-41.17 -18.71)"/></g><rect class="cls-26" x="0.5" y="75.96" width="95.33" height="95.33" rx="6.67" ry="6.67"/><g class="cls-10"><line class="cls-11" x1="47.79" y1="123.63" x2="41.23" y2="123.63"/><line class="cls-11" x1="55.11" y1="123.63" x2="48.55" y2="123.63"/><path class="cls-12" d="M96.64,142.34a.38.38,0,0,1-.37.37H89.71v6.57a.38.38,0,0,1-.76,0v-6.57H82.39a.38.38,0,0,1,0-.75H89V135.4a.38.38,0,0,1,.76,0V142h6.56A.38.38,0,0,1,96.64,142.34Z" transform="translate(-41.17 -18.71)"/></g><rect class="cls-13" x="343.62" y="76.05" width="6.63" height="439.92"/><rect class="cls-2" x="757.17" y="100.25" width="95.33" height="95.33" rx="6.67" ry="6.67"/><g class="cls-10"><line class="cls-11" x1="804.45" y1="147.92" x2="797.89" y2="147.92"/><line class="cls-11" x1="811.77" y1="147.92" x2="805.21" y2="147.92"/><path class="cls-12" d="M853.31,166.63a.38.38,0,0,1-.37.37h-6.56v6.57a.38.38,0,0,1-.76,0V167h-6.56a.38.38,0,0,1,0-.75h6.56v-6.56a.38.38,0,0,1,.76,0v6.56h6.56A.38.38,0,0,1,853.31,166.63Z" transform="translate(-41.17 -18.71)"/></g><rect class="cls-2" x="644.17" y="100.25" width="95.33" height="95.33" rx="6.67" ry="6.67"/><g class="cls-10"><line class="cls-11" x1="691.45" y1="147.92" x2="684.89" y2="147.92"/><line class="cls-11" x1="698.77" y1="147.92" x2="692.21" y2="147.92"/><path class="cls-12" d="M740.31,166.63a.38.38,0,0,1-.37.37h-6.56v6.57a.38.38,0,0,1-.76,0V167h-6.56a.38.38,0,0,1,0-.75h6.56v-6.56a.38.38,0,0,1,.76,0v6.56h6.56A.38.38,0,0,1,740.31,166.63Z" transform="translate(-41.17 -18.71)"/></g><rect class="cls-3" x="379.6" y="209.29" width="36.17" height="89.67" rx="6.67" ry="6.67"/><rect class="cls-23" x="424.6" y="209.29" width="189.07" height="89.67" rx="6.67" ry="6.67"/><g class="cls-24"><line class="cls-25" x1="518.37" y1="253.76" x2="511.81" y2="253.76"/><line class="cls-25" x1="525.69" y1="253.76" x2="519.13" y2="253.76"/><path class="cls-25" d="M567.23,272.46a.38.38,0,0,1-.37.37H560.3v6.57a.38.38,0,0,1-.76,0v-6.57H553a.38.38,0,0,1,0-.75h6.56v-6.56a.38.38,0,1,1,.76,0v6.56h6.56A.38.38,0,0,1,567.23,272.46Z" transform="translate(-41.17 -18.71)"/></g><rect class="cls-23" x="424.6" y="96.77" width="189.07" height="89.67" rx="6.67" ry="6.67"/><g class="cls-24"><line class="cls-25" x1="518.37" y1="141.23" x2="511.81" y2="141.23"/><line class="cls-25" x1="525.69" y1="141.23" x2="519.13" y2="141.23"/><path class="cls-25" d="M567.23,159.94a.38.38,0,0,1-.37.37H560.3v6.57a.38.38,0,0,1-.76,0v-6.57H553a.38.38,0,0,1,0-.75h6.56V153a.38.38,0,1,1,.76,0v6.56h6.56A.38.38,0,0,1,567.23,159.94Z" transform="translate(-41.17 -18.71)"/></g><rect class="cls-3" x="379.6" y="96.77" width="36.17" height="89.67" rx="6.67" ry="6.67"/></svg>